<svg xmlns="http://www.w3.org/2000/svg" xmlns:xlink="http://www.w3.org/1999/xlink" width="500" zoomAndPan="magnify" viewBox="0 0 375 374.999991" height="500" preserveAspectRatio="xMidYMid meet" version="1.0"><defs><g/><clipPath id="ea78e88460"><path d="M 71 107.285156 L 302 107.285156 L 302 210.035156 L 71 210.035156 Z M 71 107.285156 " clip-rule="nonzero"/></clipPath></defs><g clip-path="url(#ea78e88460)"><path fill="#ffffff" d="M 301.675781 202.34375 C 300.9375 206.808594 297 210.039062 292.472656 210.039062 L 262.667969 210.039062 C 261.363281 210.039062 260.308594 208.972656 260.332031 207.664062 C 260.359375 206.382812 261.460938 205.375 262.746094 205.375 L 292.589844 205.375 C 295.464844 205.375 296.804688 203.304688 297.082031 201.527344 C 297.355469 199.75 296.699219 197.375 293.957031 196.507812 L 263.753906 186.988281 L 263.753906 189.035156 C 263.753906 193.015625 260.527344 196.242188 256.546875 196.242188 L 249.910156 196.242188 C 248.609375 196.242188 247.554688 195.175781 247.578125 193.867188 C 247.601562 192.582031 248.703125 191.578125 249.988281 191.578125 L 256.546875 191.578125 C 257.953125 191.578125 259.089844 190.441406 259.089844 189.035156 L 259.089844 185.515625 L 186.703125 162.699219 L 114.316406 185.519531 L 114.316406 189.035156 C 114.316406 190.441406 115.453125 191.578125 116.859375 191.578125 L 123.492188 191.578125 C 124.796875 191.578125 125.851562 192.644531 125.828125 193.953125 C 125.804688 195.238281 124.699219 196.242188 123.414062 196.242188 L 116.859375 196.242188 C 112.875 196.242188 109.648438 193.015625 109.648438 189.035156 L 109.648438 186.988281 L 79.449219 196.507812 C 76.707031 197.375 76.050781 199.753906 76.324219 201.527344 C 76.597656 203.304688 77.9375 205.375 80.816406 205.375 L 110.738281 205.375 C 112.042969 205.375 113.097656 206.445312 113.074219 207.75 C 113.050781 209.035156 111.945312 210.039062 110.664062 210.039062 L 80.929688 210.039062 C 76.402344 210.039062 72.464844 206.808594 71.730469 202.34375 C 70.964844 197.707031 73.574219 193.46875 78.046875 192.0625 L 184.472656 158.511719 L 184.472656 145.988281 C 184.472656 143.1875 186.496094 140.804688 189.285156 140.320312 C 196.191406 139.117188 201.273438 132.914062 201.109375 125.890625 C 200.925781 118.097656 194.414062 111.835938 186.609375 111.945312 C 180.625 112.027344 175.332031 115.898438 173.34375 121.402344 C 173 122.351562 172.109375 122.96875 171.136719 122.96875 C 170.980469 122.96875 170.828125 122.953125 170.671875 122.921875 C 169.292969 122.640625 168.457031 121.207031 168.929688 119.882812 C 170.0625 116.714844 172.035156 113.871094 174.644531 111.691406 C 177.972656 108.90625 182.203125 107.339844 186.542969 107.285156 L 186.804688 107.285156 C 197.050781 107.285156 205.535156 115.527344 205.777344 125.78125 C 205.882812 130.363281 204.335938 134.824219 201.414062 138.339844 C 198.53125 141.808594 194.507812 144.144531 190.089844 144.914062 C 189.539062 145.011719 189.140625 145.460938 189.140625 145.988281 L 189.140625 158.578125 L 295.359375 192.0625 C 299.832031 193.46875 302.441406 197.710938 301.675781 202.34375 " fill-opacity="1" fill-rule="nonzero"/></g><g fill="#ffffff" fill-opacity="1"><g transform="translate(129.752494, 211.271969)"><g><path d="M -0.484375 -11.53125 C -0.546875 -11.332031 -0.640625 -11.234375 -0.765625 -11.234375 C -0.898438 -11.234375 -0.96875 -11.394531 -0.96875 -11.71875 C -0.96875 -12.039062 -0.6875 -12.613281 -0.125 -13.4375 C 0.425781 -14.269531 1.234375 -15.164062 2.296875 -16.125 C 3.367188 -17.082031 4.5625 -17.988281 5.875 -18.84375 C 7.1875 -19.707031 8.707031 -20.425781 10.4375 -21 C 12.175781 -21.570312 13.894531 -21.859375 15.59375 -21.859375 C 15.757812 -21.785156 15.976562 -21.703125 16.25 -21.609375 C 16.519531 -21.515625 16.875 -21.3125 17.3125 -21 C 17.757812 -20.6875 17.984375 -20.398438 17.984375 -20.140625 C 17.984375 -19.878906 17.925781 -19.6875 17.8125 -19.5625 C 16.15625 -18.050781 14.300781 -16.226562 12.25 -14.09375 C 10.195312 -11.96875 8.617188 -10.195312 7.515625 -8.78125 L 5.203125 -5.75 C 5.066406 -5.550781 5 -5.398438 5 -5.296875 L 5 -5.265625 L 5.515625 -5.515625 C 5.554688 -5.535156 5.585938 -5.554688 5.609375 -5.578125 C 13.472656 -11.109375 18.738281 -15.023438 21.40625 -17.328125 C 21.46875 -17.421875 21.550781 -17.46875 21.65625 -17.46875 C 21.769531 -17.46875 21.847656 -17.429688 21.890625 -17.359375 C 21.929688 -17.296875 22.132812 -17.097656 22.5 -16.765625 C 22.863281 -16.429688 23.046875 -16.179688 23.046875 -16.015625 C 23.046875 -15.859375 22.984375 -15.726562 22.859375 -15.625 C 20.722656 -13.601562 18.546875 -11.0625 16.328125 -8 C 14.117188 -4.945312 13.015625 -2.59375 13.015625 -0.9375 C 13.015625 -0.738281 13.109375 -0.640625 13.296875 -0.640625 C 13.734375 -0.640625 14.742188 -1.21875 16.328125 -2.375 C 17.921875 -3.539062 19.734375 -5.015625 21.765625 -6.796875 C 23.804688 -8.585938 25.960938 -10.78125 28.234375 -13.375 C 30.503906 -15.96875 32.359375 -18.492188 33.796875 -20.953125 C 33.992188 -21.359375 34.144531 -21.695312 34.25 -21.96875 C 34.351562 -22.238281 34.519531 -22.375 34.75 -22.375 C 34.976562 -22.375 35.210938 -22.054688 35.453125 -21.421875 C 35.703125 -20.785156 35.828125 -20.226562 35.828125 -19.75 C 35.828125 -19 34.96875 -17.492188 33.25 -15.234375 C 31.53125 -12.972656 29.519531 -10.632812 27.21875 -8.21875 C 24.914062 -5.8125 22.472656 -3.664062 19.890625 -1.78125 C 17.304688 0.09375 15.269531 1.03125 13.78125 1.03125 C 13.070312 1.03125 12.367188 0.75 11.671875 0.1875 C 10.972656 -0.363281 10.625 -1.265625 10.625 -2.515625 C 10.625 -4.066406 11.085938 -5.660156 12.015625 -7.296875 C 12.378906 -7.941406 12.816406 -8.519531 13.328125 -9.03125 L 14.078125 -9.90625 L 14.203125 -10.171875 L 14.203125 -10.203125 C 14.203125 -10.242188 14.191406 -10.265625 14.171875 -10.265625 C 14.109375 -10.265625 14.007812 -10.203125 13.875 -10.078125 C 9.082031 -5.859375 5.832031 -3.050781 4.125 -1.65625 C 2.425781 -0.269531 1.425781 0.421875 1.125 0.421875 C 0.820312 0.421875 0.578125 0.269531 0.390625 -0.03125 C 0.304688 -0.132812 0.210938 -0.242188 0.109375 -0.359375 C 0.015625 -0.484375 -0.0507812 -0.570312 -0.09375 -0.625 C -0.132812 -0.675781 -0.175781 -0.726562 -0.21875 -0.78125 C -0.269531 -0.84375 -0.304688 -0.882812 -0.328125 -0.90625 C -0.347656 -1.007812 -0.359375 -1.164062 -0.359375 -1.375 C -0.359375 -1.59375 -0.28125 -1.90625 -0.125 -2.3125 C 0.0195312 -2.726562 0.160156 -3.125 0.296875 -3.5 C 0.441406 -3.875 0.847656 -4.671875 1.515625 -5.890625 C 2.179688 -7.109375 2.976562 -8.332031 3.90625 -9.5625 C 4.832031 -10.800781 6.1875 -12.3125 7.96875 -14.09375 C 9.757812 -15.882812 11.765625 -17.609375 13.984375 -19.265625 C 14.390625 -19.585938 14.59375 -19.789062 14.59375 -19.875 C 14.59375 -19.96875 14.550781 -20.015625 14.46875 -20.015625 C 12.851562 -20.015625 10.164062 -18.9375 6.40625 -16.78125 C 2.65625 -14.632812 0.359375 -12.882812 -0.484375 -11.53125 Z M -0.484375 -11.53125 "/></g></g></g><g fill="#ffffff" fill-opacity="1"><g transform="translate(156.216691, 211.271969)"><g><path d="M 5.75 -1.359375 L 6 -3.421875 C 6 -3.484375 5.984375 -3.515625 5.953125 -3.515625 C 5.921875 -3.515625 5.863281 -3.472656 5.78125 -3.390625 C 5.5 -3.085938 5.140625 -2.710938 4.703125 -2.265625 C 4.273438 -1.828125 3.539062 -1.238281 2.5 -0.5 C 1.457031 0.238281 0.613281 0.609375 -0.03125 0.609375 C -0.132812 0.585938 -0.265625 0.550781 -0.421875 0.5 C -0.585938 0.445312 -0.800781 0.269531 -1.0625 -0.03125 C -1.320312 -0.332031 -1.453125 -0.757812 -1.453125 -1.3125 C -1.453125 -1.875 -1.023438 -2.726562 -0.171875 -3.875 C 0.671875 -5.03125 1.6875 -6.160156 2.875 -7.265625 C 4.0625 -8.378906 5.378906 -9.34375 6.828125 -10.15625 C 8.273438 -10.976562 9.539062 -11.390625 10.625 -11.390625 C 11.03125 -11.367188 11.351562 -11.082031 11.59375 -10.53125 C 11.800781 -10.738281 11.988281 -10.84375 12.15625 -10.84375 C 12.332031 -10.84375 12.539062 -10.710938 12.78125 -10.453125 C 12.914062 -10.429688 13.046875 -10.363281 13.171875 -10.25 C 13.296875 -10.132812 13.359375 -9.96875 13.359375 -9.75 C 13.359375 -9.53125 13.207031 -9.289062 12.90625 -9.03125 C 12.457031 -8.476562 11.929688 -7.84375 11.328125 -7.125 C 10.722656 -6.414062 10.289062 -5.90625 10.03125 -5.59375 C 9.78125 -5.28125 9.515625 -4.929688 9.234375 -4.546875 C 8.753906 -3.878906 8.492188 -3.34375 8.453125 -2.9375 C 10.648438 -3.988281 14.101562 -6.257812 18.8125 -9.75 C 19.007812 -9.59375 19.109375 -9.40625 19.109375 -9.1875 C 19.109375 -8.976562 19.019531 -8.796875 18.84375 -8.640625 C 18.675781 -8.492188 18.46875 -8.3125 18.21875 -8.09375 C 17.96875 -7.882812 17.476562 -7.46875 16.75 -6.84375 C 16.019531 -6.21875 15.316406 -5.617188 14.640625 -5.046875 C 13.960938 -4.484375 13.1875 -3.847656 12.3125 -3.140625 C 11.445312 -2.441406 10.664062 -1.847656 9.96875 -1.359375 C 8.3125 -0.171875 7.28125 0.421875 6.875 0.421875 C 6.46875 0.421875 6.175781 0.289062 6 0.03125 C 5.832031 -0.226562 5.75 -0.691406 5.75 -1.359375 Z M 2.453125 -2.71875 C 2.710938 -2.71875 3.503906 -3.242188 4.828125 -4.296875 C 6.148438 -5.347656 7.40625 -6.398438 8.59375 -7.453125 L 10.390625 -9.03125 C 10.484375 -9.125 10.53125 -9.1875 10.53125 -9.21875 C 10.53125 -9.25 10.492188 -9.265625 10.421875 -9.265625 C 9.609375 -9.265625 8.546875 -8.796875 7.234375 -7.859375 C 5.921875 -6.921875 4.785156 -5.929688 3.828125 -4.890625 C 2.867188 -3.847656 2.390625 -3.144531 2.390625 -2.78125 C 2.390625 -2.738281 2.410156 -2.71875 2.453125 -2.71875 Z M 2.453125 -2.71875 "/></g></g></g><g fill="#ffffff" fill-opacity="1"><g transform="translate(168.803326, 211.271969)"><g><path d="M 1.1875 -6.03125 C 2.375 -6.851562 3.613281 -7.738281 4.90625 -8.6875 C 4.21875 -9.15625 3.773438 -9.617188 3.578125 -10.078125 C 3.515625 -10.222656 3.484375 -10.328125 3.484375 -10.390625 C 3.484375 -10.828125 3.625 -11.113281 3.90625 -11.25 C 4.1875 -11.382812 4.640625 -11.453125 5.265625 -11.453125 C 5.492188 -11.453125 6.191406 -11.160156 7.359375 -10.578125 C 8.523438 -10.003906 9.265625 -9.71875 9.578125 -9.71875 C 9.890625 -9.71875 10.320312 -9.804688 10.875 -9.984375 C 11.4375 -10.171875 11.882812 -10.265625 12.21875 -10.265625 C 12.550781 -10.265625 12.789062 -10.191406 12.9375 -10.046875 C 13.476562 -9.328125 13.75 -8.890625 13.75 -8.734375 C 13.75 -8.585938 13.675781 -8.46875 13.53125 -8.375 C 13.394531 -8.28125 12.957031 -7.972656 12.21875 -7.453125 C 11.476562 -6.941406 10.75 -6.414062 10.03125 -5.875 C 9.320312 -5.332031 8.65625 -4.726562 8.03125 -4.0625 C 7.414062 -3.394531 7.109375 -2.859375 7.109375 -2.453125 C 7.109375 -2.390625 7.160156 -2.359375 7.265625 -2.359375 C 8.421875 -2.359375 12.335938 -4.710938 19.015625 -9.421875 C 19.160156 -9.421875 19.234375 -9.285156 19.234375 -9.015625 C 19.234375 -8.753906 18.382812 -7.832031 16.6875 -6.25 C 14.988281 -4.664062 13.066406 -3.113281 10.921875 -1.59375 C 8.785156 -0.0820312 7.234375 0.671875 6.265625 0.671875 C 4.753906 0.671875 4 -0.078125 4 -1.578125 C 4 -2.398438 4.273438 -3.191406 4.828125 -3.953125 C 5.378906 -4.710938 6.535156 -5.738281 8.296875 -7.03125 C 7.929688 -7.03125 7.4375 -7.125 6.8125 -7.3125 C 6.1875 -7.5 5.785156 -7.71875 5.609375 -7.96875 C 5.054688 -7.476562 4.09375 -6.648438 2.71875 -5.484375 C 2.394531 -5.242188 1.972656 -5.125 1.453125 -5.125 C 0.929688 -5.125 0.671875 -5.203125 0.671875 -5.359375 C 0.671875 -5.523438 0.84375 -5.75 1.1875 -6.03125 Z M 1.1875 -6.03125 "/></g></g></g><g fill="#ffffff" fill-opacity="1"><g transform="translate(182.196792, 211.271969)"><g><path d="M 2.546875 -2.71875 C 2.804688 -2.71875 3.597656 -3.242188 4.921875 -4.296875 C 6.242188 -5.347656 7.507812 -6.398438 8.71875 -7.453125 L 10.484375 -9.03125 C 10.578125 -9.125 10.625 -9.1875 10.625 -9.21875 C 10.625 -9.25 10.59375 -9.265625 10.53125 -9.265625 C 9.707031 -9.265625 8.640625 -8.796875 7.328125 -7.859375 C 6.015625 -6.921875 4.878906 -5.929688 3.921875 -4.890625 C 2.960938 -3.847656 2.484375 -3.144531 2.484375 -2.78125 C 2.484375 -2.738281 2.503906 -2.71875 2.546875 -2.71875 Z M 8.140625 -2.234375 C 8.140625 -2.160156 8.207031 -2.125 8.34375 -2.125 C 8.476562 -2.125 9.109375 -2.445312 10.234375 -3.09375 C 13.160156 -4.75 16.601562 -6.96875 20.5625 -9.75 C 20.757812 -9.59375 20.859375 -9.40625 20.859375 -9.1875 C 20.859375 -8.976562 20.75 -8.773438 20.53125 -8.578125 C 20.3125 -8.390625 20.003906 -8.113281 19.609375 -7.75 C 19.210938 -7.382812 18.453125 -6.726562 17.328125 -5.78125 C 16.210938 -4.832031 15.171875 -3.972656 14.203125 -3.203125 C 11.660156 -1.148438 9.789062 0.0546875 8.59375 0.421875 C 8.195312 0.523438 7.773438 0.578125 7.328125 0.578125 C 6.898438 0.515625 6.503906 0.351562 6.140625 0.09375 C 5.785156 -0.164062 5.609375 -0.46875 5.609375 -0.8125 C 5.609375 -1.15625 5.6875 -1.664062 5.84375 -2.34375 C 6.007812 -3.019531 6.09375 -3.382812 6.09375 -3.4375 C 6.09375 -3.488281 6.078125 -3.515625 6.046875 -3.515625 C 6.015625 -3.515625 5.957031 -3.472656 5.875 -3.390625 C 5.59375 -3.085938 5.238281 -2.710938 4.8125 -2.265625 C 4.382812 -1.828125 3.644531 -1.238281 2.59375 -0.5 C 1.550781 0.238281 0.707031 0.609375 0.0625 0.609375 C -0.0390625 0.585938 -0.171875 0.550781 -0.328125 0.5 C -0.492188 0.445312 -0.707031 0.269531 -0.96875 -0.03125 C -1.226562 -0.332031 -1.359375 -0.757812 -1.359375 -1.3125 C -1.359375 -1.875 -0.9375 -2.726562 -0.09375 -3.875 C 0.738281 -5.03125 1.757812 -6.160156 2.96875 -7.265625 C 4.175781 -8.378906 5.5 -9.34375 6.9375 -10.15625 C 8.382812 -10.976562 9.644531 -11.390625 10.71875 -11.390625 C 11.101562 -11.390625 11.425781 -11.101562 11.6875 -10.53125 C 11.664062 -10.675781 12.363281 -11.644531 13.78125 -13.4375 C 15.207031 -15.238281 16.890625 -17.046875 18.828125 -18.859375 C 20.773438 -20.679688 22.289062 -21.59375 23.375 -21.59375 C 23.738281 -21.59375 23.921875 -21.421875 23.921875 -21.078125 C 23.921875 -20.535156 23.554688 -19.800781 22.828125 -18.875 C 22.109375 -17.957031 21.332031 -17.097656 20.5 -16.296875 C 19.675781 -15.503906 18.609375 -14.503906 17.296875 -13.296875 C 14.265625 -10.546875 11.976562 -8.203125 10.4375 -6.265625 C 8.90625 -4.328125 8.140625 -2.984375 8.140625 -2.234375 Z M 8.140625 -2.234375 "/></g></g></g><g fill="#ffffff" fill-opacity="1"><g transform="translate(196.623008, 211.271969)"><g><path d="M 1.1875 -6.03125 C 2.375 -6.851562 3.613281 -7.738281 4.90625 -8.6875 C 4.21875 -9.15625 3.773438 -9.617188 3.578125 -10.078125 C 3.515625 -10.222656 3.484375 -10.328125 3.484375 -10.390625 C 3.484375 -10.828125 3.625 -11.113281 3.90625 -11.25 C 4.1875 -11.382812 4.640625 -11.453125 5.265625 -11.453125 C 5.492188 -11.453125 6.191406 -11.160156 7.359375 -10.578125 C 8.523438 -10.003906 9.265625 -9.71875 9.578125 -9.71875 C 9.890625 -9.71875 10.320312 -9.804688 10.875 -9.984375 C 11.4375 -10.171875 11.882812 -10.265625 12.21875 -10.265625 C 12.550781 -10.265625 12.789062 -10.191406 12.9375 -10.046875 C 13.476562 -9.328125 13.75 -8.890625 13.75 -8.734375 C 13.75 -8.585938 13.675781 -8.46875 13.53125 -8.375 C 13.394531 -8.28125 12.957031 -7.972656 12.21875 -7.453125 C 11.476562 -6.941406 10.75 -6.414062 10.03125 -5.875 C 9.320312 -5.332031 8.65625 -4.726562 8.03125 -4.0625 C 7.414062 -3.394531 7.109375 -2.859375 7.109375 -2.453125 C 7.109375 -2.390625 7.160156 -2.359375 7.265625 -2.359375 C 8.421875 -2.359375 12.335938 -4.710938 19.015625 -9.421875 C 19.160156 -9.421875 19.234375 -9.285156 19.234375 -9.015625 C 19.234375 -8.753906 18.382812 -7.832031 16.6875 -6.25 C 14.988281 -4.664062 13.066406 -3.113281 10.921875 -1.59375 C 8.785156 -0.0820312 7.234375 0.671875 6.265625 0.671875 C 4.753906 0.671875 4 -0.078125 4 -1.578125 C 4 -2.398438 4.273438 -3.191406 4.828125 -3.953125 C 5.378906 -4.710938 6.535156 -5.738281 8.296875 -7.03125 C 7.929688 -7.03125 7.4375 -7.125 6.8125 -7.3125 C 6.1875 -7.5 5.785156 -7.71875 5.609375 -7.96875 C 5.054688 -7.476562 4.09375 -6.648438 2.71875 -5.484375 C 2.394531 -5.242188 1.972656 -5.125 1.453125 -5.125 C 0.929688 -5.125 0.671875 -5.203125 0.671875 -5.359375 C 0.671875 -5.523438 0.84375 -5.75 1.1875 -6.03125 Z M 1.1875 -6.03125 "/></g></g></g><g fill="#ffffff" fill-opacity="1"><g transform="translate(210.016474, 211.271969)"><g><path d="M 1.84375 -1.421875 C 2.53125 -1.421875 3.378906 -1.867188 4.390625 -2.765625 C 5.398438 -3.671875 5.925781 -4.300781 5.96875 -4.65625 C 5.707031 -4.863281 5.429688 -5.253906 5.140625 -5.828125 C 4.859375 -6.398438 4.707031 -6.6875 4.6875 -6.6875 C 4.019531 -6.0625 3.425781 -5.335938 2.90625 -4.515625 C 2.082031 -3.140625 1.671875 -2.191406 1.671875 -1.671875 C 1.671875 -1.503906 1.726562 -1.421875 1.84375 -1.421875 Z M 8.8125 -9.328125 C 8.59375 -9.328125 8.144531 -8.992188 7.46875 -8.328125 C 6.789062 -7.660156 6.453125 -7.195312 6.453125 -6.9375 C 6.453125 -6.875 6.515625 -6.742188 6.640625 -6.546875 C 6.773438 -6.359375 6.875 -6.265625 6.9375 -6.265625 C 7.300781 -6.265625 7.710938 -6.703125 8.171875 -7.578125 C 8.640625 -8.460938 8.875 -8.972656 8.875 -9.109375 C 8.875 -9.253906 8.851562 -9.328125 8.8125 -9.328125 Z M 8.875 -5.171875 C 9.476562 -5.171875 10.421875 -5.535156 11.703125 -6.265625 C 12.984375 -6.992188 14.109375 -7.722656 15.078125 -8.453125 L 16.53125 -9.59375 C 16.71875 -9.4375 16.8125 -9.25 16.8125 -9.03125 C 16.8125 -8.820312 16.71875 -8.628906 16.53125 -8.453125 C 12.976562 -5.160156 10.285156 -3.515625 8.453125 -3.515625 C 8.328125 -3.515625 8.132812 -3.535156 7.875 -3.578125 C 5.445312 -0.765625 3.359375 0.640625 1.609375 0.640625 C 0.453125 0.472656 -0.273438 0.0664062 -0.578125 -0.578125 C -0.753906 -0.898438 -0.84375 -1.3125 -0.84375 -1.8125 C -0.84375 -3.226562 -0.0234375 -4.921875 1.609375 -6.890625 C 3.242188 -8.859375 5.300781 -10.304688 7.78125 -11.234375 C 8 -11.234375 8.160156 -11.179688 8.265625 -11.078125 C 8.367188 -10.984375 8.460938 -10.929688 8.546875 -10.921875 C 8.640625 -10.910156 8.753906 -10.953125 8.890625 -11.046875 C 9.035156 -11.148438 9.222656 -11.207031 9.453125 -11.21875 C 9.691406 -11.226562 9.941406 -11.09375 10.203125 -10.8125 C 10.546875 -10.53125 10.71875 -10.1875 10.71875 -9.78125 C 10.71875 -8.570312 10.101562 -7.035156 8.875 -5.171875 Z M 8.875 -5.171875 "/></g></g></g><g fill="#ffffff" fill-opacity="1"><g transform="translate(220.602155, 211.271969)"><g><path d="M 14.84375 -21.984375 C 15.96875 -21.984375 16.53125 -21.679688 16.53125 -21.078125 C 16.53125 -20.191406 15.679688 -18.851562 13.984375 -17.0625 C 12.296875 -15.28125 10.601562 -13.722656 8.90625 -12.390625 L 6.390625 -10.359375 C 6.265625 -10.210938 6.203125 -10.09375 6.203125 -10 C 6.203125 -9.914062 6.253906 -9.875 6.359375 -9.875 C 8.054688 -10.976562 9.582031 -11.550781 10.9375 -11.59375 C 11.195312 -11.59375 11.4375 -11.515625 11.65625 -11.359375 C 12.382812 -10.753906 12.75 -10.050781 12.75 -9.25 C 12.75 -8.457031 11.929688 -7.117188 10.296875 -5.234375 C 10.984375 -5.398438 11.921875 -5.84375 13.109375 -6.5625 C 14.304688 -7.289062 15.328125 -7.976562 16.171875 -8.625 L 17.4375 -9.59375 C 17.625 -9.4375 17.71875 -9.25 17.71875 -9.03125 C 17.71875 -8.820312 17.625 -8.628906 17.4375 -8.453125 C 13.882812 -5.160156 11.191406 -3.515625 9.359375 -3.515625 C 9.234375 -3.515625 9.039062 -3.535156 8.78125 -3.578125 L 8.84375 -3.6875 C 7.570312 -2.4375 6.300781 -1.394531 5.03125 -0.5625 C 3.757812 0.257812 2.71875 0.671875 1.90625 0.671875 C -0.113281 0.671875 -1.125 -0.015625 -1.125 -1.390625 C -1.125 -2.078125 -0.90625 -2.890625 -0.46875 -3.828125 C -0.03125 -4.765625 0.5 -5.65625 1.125 -6.5 C 1.75 -7.351562 2.378906 -8.15625 3.015625 -8.90625 C 3.648438 -9.664062 4.1875 -10.269531 4.625 -10.71875 C 5.070312 -11.164062 5.296875 -11.378906 5.296875 -11.359375 C 6.828125 -13.128906 8.15625 -14.757812 9.28125 -16.25 C 10.40625 -17.75 11.148438 -18.816406 11.515625 -19.453125 C 11.890625 -20.085938 12.257812 -20.628906 12.625 -21.078125 C 12.988281 -21.523438 13.289062 -21.785156 13.53125 -21.859375 C 13.78125 -21.941406 14.21875 -21.984375 14.84375 -21.984375 Z M 1.875 -1.125 C 2.757812 -1.125 3.90625 -1.75 5.3125 -3 C 6.71875 -4.25 7.921875 -5.550781 8.921875 -6.90625 C 9.921875 -8.257812 10.421875 -9.144531 10.421875 -9.5625 C 10.421875 -9.625 10.390625 -9.65625 10.328125 -9.65625 C 9.210938 -9.65625 7.941406 -9.050781 6.515625 -7.84375 C 5.097656 -6.632812 3.929688 -5.375 3.015625 -4.0625 C 2.097656 -2.75 1.640625 -1.847656 1.640625 -1.359375 C 1.640625 -1.203125 1.71875 -1.125 1.875 -1.125 Z M 1.875 -1.125 "/></g></g></g><g fill="#ffffff" fill-opacity="1"><g transform="translate(231.994668, 211.271969)"><g><path d="M 10 -9.75 C 9.445312 -9.75 8.503906 -9.171875 7.171875 -8.015625 C 5.835938 -6.867188 5.171875 -6.164062 5.171875 -5.90625 C 5.171875 -5.863281 5.203125 -5.84375 5.265625 -5.84375 C 5.734375 -5.84375 6.671875 -6.367188 8.078125 -7.421875 C 9.492188 -8.472656 10.203125 -9.195312 10.203125 -9.59375 C 10.203125 -9.695312 10.132812 -9.75 10 -9.75 Z M 3.125 0.578125 C 1.46875 0.578125 0.640625 -0.429688 0.640625 -2.453125 C 0.640625 -3.722656 1.191406 -5.070312 2.296875 -6.5 C 3.410156 -7.9375 4.71875 -9.109375 6.21875 -10.015625 C 7.726562 -10.929688 9.066406 -11.390625 10.234375 -11.390625 C 10.753906 -11.390625 11.234375 -11.1875 11.671875 -10.78125 C 12.109375 -10.375 12.328125 -9.976562 12.328125 -9.59375 C 12.328125 -8.875 11.820312 -8.066406 10.8125 -7.171875 C 9.800781 -6.285156 8.738281 -5.566406 7.625 -5.015625 C 6.519531 -4.472656 5.789062 -4.203125 5.4375 -4.203125 C 5.082031 -4.203125 4.820312 -4.363281 4.65625 -4.6875 C 4.5625 -4.75 4.4375 -4.78125 4.28125 -4.78125 C 4.132812 -4.78125 3.890625 -4.492188 3.546875 -3.921875 C 3.203125 -3.347656 3.03125 -2.882812 3.03125 -2.53125 C 3.03125 -2.175781 3.160156 -1.957031 3.421875 -1.875 C 5.054688 -1.875 6.832031 -2.351562 8.75 -3.3125 C 10.664062 -4.269531 13.3125 -5.953125 16.6875 -8.359375 C 16.925781 -8.535156 17.285156 -8.796875 17.765625 -9.140625 C 18.253906 -9.484375 18.539062 -9.6875 18.625 -9.75 C 18.820312 -9.59375 18.921875 -9.40625 18.921875 -9.1875 C 18.921875 -8.976562 18.820312 -8.789062 18.625 -8.625 C 17.550781 -7.539062 16.15625 -6.332031 14.4375 -5 C 12.726562 -3.664062 10.765625 -2.398438 8.546875 -1.203125 C 6.335938 -0.015625 4.53125 0.578125 3.125 0.578125 Z M 3.125 0.578125 "/></g></g></g></svg>